# xmcd
#
# Track frame offsets:
#  150
#  19186
#  33235
#  48694
#  60983
#  76115
#  96014
#  114285
#  136134
#  154061
#  169707
#  183919
#  207445
#  224944
#  242936
#
# Disc length: 3428 seconds
#
# Revision: 0
# Processed by: cddbd v1.5.2PL0 Copyright (c) Steve Scherf et al.
# Submitted via: Collectorz.com_Music_Collector 6.11
#
DISCID=c90d620f
DTITLE=Eric Clapton - Blues At The Fillmore [CD1)
DYEAR=1994
DGENRE=Blues
TTITLE0=Motherless Child
TTITLE1=Malted Milk
TTITLE2=How Long Blues
TTITLE3=Kidman Blues
TTITLE4=County Jail
TTITLE5=44
TTITLE6=Blues Leave Me Alone
TTITLE7=Standin' Around Crying
TTITLE8=Hoochie Coochie Man
TTITLE9=It Hurts Me Too
TTITLE10=Blues Before Sunrise
TTITLE11=Third Degree
TTITLE12=Reconsider Baby
TTITLE13=Sinner's Prayer
TTITLE14=I Can't Judge Nobody
EXTD=
EXTT0=
EXTT1=
EXTT2=
EXTT3=
EXTT4=
EXTT5=
EXTT6=
EXTT7=
EXTT8=
EXTT9=
EXTT10=
EXTT11=
EXTT12=
EXTT13=
EXTT14=
PLAYORDER=
